# xmcd
#
# Track frame offsets: 
#        150
#        19783
#        38688
#        57976
#        78815
#        99070
#        115327
#        129717
#        140596
#        160618
#
# Disc length: 2491 seconds
#
# Revision: 0
# Processed by: cddbd v1.5.2PL0 Copyright (c) Steve Scherf et al.
# Submitted via: ExactAudioCopyFreeDBPlugin 1.0
#
DISCID=7409b90a
DTITLE=The Sugar Thieves - Plywood Palace
DYEAR=2012
DGENRE=Folk
TTITLE0=Standing In The Shadows
TTITLE1=Sometimes
TTITLE2=Lullabay
TTITLE3=Bear Song
TTITLE4=Chocolate Jesus
TTITLE5=Give Me A Pig Foot And A Bottle Of Beer
TTITLE6=The Phantom
TTITLE7=Get 'Em From The Peanut Man (Hot Nuts)
TTITLE8=Get Back
TTITLE9=St. James Infirmary
EXTD=
EXTT0=
EXTT1=
EXTT2=
EXTT3=
EXTT4=
EXTT5=
EXTT6=
EXTT7=
EXTT8=
EXTT9=
PLAYORDER=
